<svg width="489" height="259" viewBox="0 0 489 259" fill="none" xmlns="http://www.w3.org/2000/svg">
<path d="M44.2977 0.173298C43.1576 0.417871 41.0114 1.85037 40.4414 2.79373C38.8653 5.30934 39.3012 9.36226 41.3468 11.3538C44.566 14.4284 49.5289 13.3803 51.4403 9.22251C52.9828 5.79848 51.0714 1.57086 47.4834 0.45281C45.7732 -0.0712757 45.6726 -0.106215 44.2977 0.173298Z" fill="#000000"/>
<path d="M11.8711 4.82117C9.38959 6.11392 8.38359 7.96569 8.38359 11.0753C8.41712 13.2415 9.25545 14.8836 10.9992 16.1764C12.2735 17.0848 12.7765 17.2245 14.5537 17.2245C16.2975 17.2245 16.9011 17.0498 18.0077 16.2462C18.7454 15.7222 19.6843 14.639 20.1203 13.8354C23.0377 8.38495 17.2364 2.06099 11.8711 4.82117Z" fill="#000000"/>
<path d="M190.805 8.10421C189.262 9.15239 188.625 9.95598 188.155 11.4234C186.445 16.7691 191.073 21.5907 196.203 19.8088C199.188 18.7606 200.999 15.2667 200.194 12.1921C199.792 10.5849 198.215 8.52348 196.807 7.75482C195.332 6.98617 192.213 7.16086 190.805 8.10421Z" fill="#000000"/>
<path d="M219.308 13.4166C217.33 14.2552 216.525 14.8841 215.62 16.2816C213.004 20.4045 215.452 25.7152 220.314 26.379C226.585 27.2525 229.636 18.0635 224.338 14.3949C222.997 13.4516 220.415 12.9624 219.308 13.4166Z" fill="#000000"/>
<path d="M66.3627 21.0332C61.0644 22.9898 58.7841 29.0692 61.2656 34.5547C62.0704 36.3715 62.6069 37.0353 64.0824 38.1184C69.8501 42.2412 77.2945 39.2365 78.8371 32.1439C79.8095 27.7415 77.0263 22.6055 72.8681 21.0332C71.2585 20.4393 67.9387 20.4393 66.3627 21.0332Z" fill="#000000"/>
<path d="M171.993 21.486C170.383 21.7305 167.6 23.7919 166.426 25.5389C164.414 28.6135 164.146 32.1074 165.621 35.3218C167.734 39.8639 172.73 41.9602 177.425 40.2832C179.605 39.5145 181.919 37.1736 182.757 34.9375C184.199 30.9894 183.361 26.8316 180.577 24.0714C178.163 21.6956 175.547 20.9269 171.993 21.486Z" fill="#000000"/>
<path d="M4.56077 31.7234C3.42064 32.1077 1.47571 33.9246 0.80504 35.2872C0.20144 36.5101 0.20144 39.5148 0.80504 40.7726C2.01224 43.1834 5.23144 44.9653 7.47817 44.4762C10.8986 43.7424 12.9441 40.9473 12.6758 37.4883C12.4746 35.1474 11.8375 33.8547 10.2279 32.7017C8.75244 31.6186 6.20391 31.1644 4.56077 31.7234Z" fill="#000000"/>
<path d="M39.3685 32.8052C36.9541 33.7485 34.4391 36.4039 33.6678 38.7797C32.2929 43.0074 33.1313 47.2699 35.9816 50.1699C42.5206 56.8782 53.3183 52.2313 53.3183 42.7278C53.3183 35.2159 46.1087 30.0799 39.3685 32.8052Z" fill="#000000"/>
<path d="M196.807 38.3621C193.957 38.8862 191.207 40.9825 189.531 43.9174C188.726 45.3499 188.625 45.874 188.625 48.8438C188.659 52.5474 188.96 53.4558 191.039 55.8666C196.271 61.8761 205.492 60.0942 208.209 52.5474C209.651 48.5294 208.745 44.4415 205.761 41.297C203.38 38.8512 200.127 37.7681 196.807 38.3621Z" fill="#000000"/>
<path d="M226.887 42.6942C222.293 44.4761 221.186 50.3458 224.774 53.6301C226.25 54.9578 228.295 55.6216 230.072 55.3072C231.648 55.0276 233.862 53.4204 234.566 52.0229C235.304 50.4856 235.237 46.8519 234.398 45.4543C232.956 42.9387 229.502 41.6809 226.887 42.6942Z" fill="#000000"/>
<path d="M144.026 43.0787C141.578 44.022 139.499 46.0135 138.191 48.634C137.118 50.7653 136.984 51.3243 136.984 53.7001C136.984 56.076 137.118 56.67 138.158 58.8012C139.063 60.688 139.734 61.5265 141.209 62.6445C143.624 64.4963 145.501 65.0553 148.654 64.8457C154.421 64.4614 158.412 59.9193 158.412 53.7351C158.412 49.3328 156.467 45.8389 152.879 43.7775C151.336 42.904 150.632 42.7642 148.218 42.6594C146.306 42.5895 144.931 42.7293 144.026 43.0787Z" fill="#000000"/>
<path d="M90.8757 45.315C87.7906 46.2933 84.8732 49.2281 84.1355 52.0931C83.666 53.9798 83.9007 57.7882 84.6385 59.2207C86.9858 64.0073 92.1835 66.1037 96.9117 64.2519C103.182 61.8062 104.96 52.9666 100.198 48.0751C97.7165 45.5595 93.8266 44.4065 90.8757 45.315Z" fill="#000000"/>
<path d="M23.1046 56.2518C21.1597 56.7758 18.7788 58.9071 17.6387 61.2131C14.2183 68.0611 19.5501 76.0971 26.9945 75.2935C31.8568 74.7694 35.3443 70.7165 35.3778 65.6154C35.3778 59.0469 29.4424 54.4699 23.1046 56.2518Z" fill="#000000"/>
<path d="M67.0669 59.64C61.0979 61.6665 57.7111 67.9904 59.5219 73.7204C61.601 80.3588 68.4082 83.6431 74.3101 80.848C79.0718 78.5769 81.3521 74.0349 80.4467 68.5145C80.0443 65.8242 79.6419 65.0555 77.697 62.8544C75.752 60.6532 73.4382 59.5701 70.4202 59.4653C69.0453 59.3954 67.5364 59.4653 67.0669 59.64Z" fill="#000000"/>
<path d="M170.283 59.8853C166.225 61.1781 162.302 65.4057 161.094 69.7032C159.518 75.3633 162.268 82.1764 167.365 85.286C174.038 89.3738 182.791 86.5787 186.211 79.2415C187.217 77.1452 187.284 76.7259 187.284 73.3019C187.284 69.8779 187.217 69.4586 186.211 67.3623C185.071 64.9165 182.455 61.9817 180.376 60.8985C177.526 59.3263 173.301 58.907 170.283 59.8853Z" fill="#000000"/>
<path d="M209.483 62.8184C206.532 63.5871 204.453 65.334 203.179 68.234C200.932 73.1604 202.743 78.6807 207.437 81.1614C211.964 83.5373 217.564 81.6855 219.912 77.0037C220.65 75.5013 220.817 74.7676 220.817 72.4266C220.817 70.0857 220.65 69.352 219.912 67.8496C218 64.0413 213.406 61.8401 209.483 62.8184Z" fill="#000000"/>
<path d="M115.556 68.7597C113.007 69.7031 111.767 70.6115 109.889 72.8826C108.682 74.35 108.246 75.2933 107.81 77.215C106.368 83.2594 108.749 88.9196 113.879 91.6448C115.69 92.5882 116.16 92.693 119.211 92.693C122.33 92.693 122.699 92.6231 124.61 91.5749C130.009 88.6401 132.39 82.2812 130.344 76.3415C129.439 73.756 128.768 72.7777 126.656 70.926C123.604 68.3055 119.144 67.4321 115.556 68.7597Z" fill="#000000"/>
<path d="M85.5103 84.5153C81.3857 85.3539 77.7976 88.6381 76.5234 92.6561C74.0754 100.378 78.3342 107.855 86.0133 109.322C91.5463 110.37 97.6158 106.562 99.259 101.007C101.439 93.6344 97.5823 86.3321 90.5738 84.6201C88.4612 84.096 87.69 84.0611 85.5103 84.5153Z" fill="#000000"/>
<path d="M45.941 85.0408C43.3254 85.9842 41.0451 88.1155 39.8379 90.7359C36.3169 98.3526 41.414 106.913 49.4955 106.913C53.7207 106.913 57.1411 104.712 59.1196 100.763C60.025 98.9116 60.1591 98.2478 60.1591 95.837C60.1926 93.3563 60.0585 92.7624 59.086 90.701C58.3818 89.1986 57.4764 87.9757 56.504 87.1372C53.6872 84.6915 49.2943 83.8529 45.941 85.0408Z" fill="#000000"/>
<path d="M142.852 90.0362C139.599 91.1542 136.883 93.4952 135.374 96.4999C134.402 98.4914 134.301 98.8758 134.301 102.125C134.301 105.444 134.368 105.794 135.441 108.03C136.749 110.65 138.761 112.642 141.377 113.865C142.651 114.494 143.691 114.668 146.038 114.668C148.821 114.703 149.257 114.598 151.303 113.55C152.745 112.816 154.086 111.768 155.092 110.615C157.037 108.344 157.406 107.576 157.942 104.641C158.948 98.9107 156.333 93.4602 151.37 90.9097C149.794 90.1061 148.922 89.9314 146.574 89.8266C144.998 89.7916 143.322 89.8615 142.852 90.0362Z" fill="#000000"/>
<path d="M188.122 91.1903C184.735 91.7143 181.348 94.6492 179.873 98.3178C179.169 100.03 179.336 105.445 180.141 107.018C181.08 108.869 183.327 111.21 185.138 112.258C186.747 113.202 187.25 113.307 189.966 113.307C192.616 113.307 193.219 113.167 194.896 112.328C197.075 111.21 198.92 109.219 200.06 106.668C201.267 103.978 201.2 100.309 199.859 97.5142C197.545 92.6926 193.32 90.4216 188.122 91.1903Z" fill="#000000"/>
<path d="M114.684 109.15C107.743 110.687 101.942 116.487 99.7955 123.929C98.9907 126.759 99.0913 132 99.9632 134.83C102.277 142.097 106.837 146.849 113.645 148.98C116.227 149.784 121.559 149.784 124.241 148.945C130.881 146.919 135.944 141.503 138.023 134.236C138.795 131.58 138.795 126.899 138.057 124.278C136.85 120.085 135.475 117.64 132.725 114.775C127.762 109.639 121.357 107.647 114.684 109.15Z" fill="#000000"/>
<path d="M160.725 118.546C155.796 120.153 152.61 124.311 152.309 129.657C152.141 132.661 152.577 134.339 154.321 137.273C156.903 141.571 163.006 143.702 167.835 141.99C172.429 140.383 176.05 135.212 176.05 130.321C176.05 127.106 173.803 122.529 171.255 120.573C168.304 118.302 163.978 117.463 160.725 118.546Z" fill="#000000"/>
<path d="M66.6645 119.317C59.7567 122.007 58.08 131.545 63.613 136.507C67.9723 140.385 74.5113 139.651 77.7976 134.9C80.6814 130.707 80.3796 125.85 76.9593 121.937C74.5448 119.142 70.0514 117.989 66.6645 119.317Z" fill="#000000"/>
<path d="M184.97 145.31C182.388 146.393 180.309 148.419 179.269 150.865C177.928 153.975 177.794 156.211 178.766 159.32C180.208 164.037 184.098 166.937 188.927 166.937C195.131 166.937 199.691 162.22 199.691 155.757C199.691 153.486 199.523 152.787 198.585 150.795C197.31 148.07 195.332 146.218 192.649 145.24C190.268 144.366 187.116 144.401 184.97 145.31Z" fill="#000000"/>
<path d="M88.0252 146.114C83.1293 147.372 79.776 151.145 78.8035 156.456C78.1329 160.055 79.4406 164.213 82.0898 167.043C89.7018 175.218 102.746 169.733 102.746 158.378C102.746 152.229 98.8229 147.302 92.9546 146.009C90.8084 145.555 90.2049 145.555 88.0252 146.114Z" fill="#000000"/>
<path d="M143.959 146.01C140.203 146.778 137.219 149.119 135.374 152.788C134.368 154.744 134.301 155.129 134.301 158.378C134.301 161.627 134.368 162.012 135.374 164.003C137.822 168.93 143.154 171.76 148.117 170.816C153.348 169.803 157.07 165.995 157.942 160.789C159.149 153.557 155.058 147.337 148.251 145.975C146.239 145.59 145.937 145.59 143.959 146.01Z" fill="#000000"/>
<path d="M47.9528 148.386C44.5324 149.189 41.3468 151.845 40.2737 154.849C39.2342 157.784 39.1 159.636 39.7372 162.431C40.2402 164.527 40.5755 165.191 42.118 166.938C44.566 169.664 46.578 170.572 50.1325 170.607C52.3792 170.607 53.117 170.467 54.693 169.663C57.141 168.406 58.717 166.729 59.9242 164.248C61.1985 161.488 61.2656 157.54 60.0248 154.884C58.8512 152.404 56.202 149.713 54.1565 149.015C52.111 148.281 49.5289 148.036 47.9528 148.386Z" fill="#000000"/>
<path d="M116.529 166.238C114.114 167.216 111.7 169.802 110.694 172.457C110.023 174.274 109.923 175.008 110.057 177.314C110.291 180.808 111.163 182.834 113.376 184.895C117.769 189.018 123.939 188.913 128.232 184.651C130.68 182.205 131.585 179.724 131.384 176.021C131.25 174.099 130.981 172.911 130.344 171.619C129.271 169.417 126.488 166.797 124.442 166.063C122.363 165.33 118.608 165.399 116.529 166.238Z" fill="#000000"/>
<path d="M174.005 172.633C171.49 173.611 169.846 175.184 168.438 177.944C167.667 179.411 167.533 180.145 167.533 182.311C167.533 184.478 167.667 185.246 168.404 186.679C170.316 190.417 172.831 192.129 176.721 192.374C178.833 192.513 179.571 192.409 180.879 191.78C184.936 189.928 186.881 186.818 186.915 182.311C186.915 178.119 185.071 175.044 181.415 173.052C179.906 172.214 175.681 172.004 174.005 172.633Z" fill="#000000"/>
<path d="M208.477 174.066C205.794 175.079 203.313 177.979 202.508 181.088C200.664 188.146 207.94 195.064 214.58 192.618C218.637 191.151 220.985 187.762 220.985 183.359C220.985 179.132 218.57 175.428 214.949 174.101C213.205 173.472 210.187 173.437 208.477 174.066Z" fill="#000000"/>
<path d="M58.717 177.07C55.129 178.432 52.6475 180.878 50.8367 184.756C49.9313 186.783 49.7972 187.377 49.7972 190.172C49.7972 192.723 49.9313 193.666 50.5684 195.063C52.2116 198.802 53.9888 200.828 57.0068 202.54C66.4968 207.851 77.7975 199.536 76.3891 188.285C75.8526 183.813 73.0022 179.865 68.7435 177.559C66.2285 176.231 61.5003 175.987 58.717 177.07Z" fill="#000000"/>
<path d="M143.825 177.943C140.907 178.922 138.661 180.948 137.118 184.058C136.514 185.211 136.28 186.364 136.179 188.355C136.079 190.836 136.179 191.29 137.118 193.282C140.103 199.605 146.675 201.842 152.443 198.487C154.22 197.439 156.098 195.273 157.003 193.177C158.043 190.801 157.942 186.364 156.802 183.918C155.763 181.717 153.449 179.376 151.37 178.432C149.391 177.489 145.803 177.279 143.825 177.943Z" fill="#000000"/>
<path d="M21.0927 180.703C16.9681 181.611 14.1513 185.105 13.816 189.647C13.6818 191.674 13.7824 192.268 14.5872 194.154C17.907 201.806 27.7658 202.016 31.4545 194.539C32.494 192.442 32.5611 192.058 32.427 189.787C32.3264 187.795 32.0916 186.922 31.2198 185.315C29.9455 183.009 27.464 181.087 25.3179 180.738C24.5802 180.598 23.7418 180.458 23.4736 180.388C23.2053 180.318 22.1322 180.458 21.0927 180.703Z" fill="#000000"/>
<path d="M96.3752 189.997C92.9883 190.731 90.2721 192.897 88.696 196.147C87.8577 197.894 87.69 198.627 87.69 201.003C87.69 203.554 87.8242 204.078 88.8637 206.209C90.8422 210.297 94.7656 212.603 99.2255 212.288C108.045 211.625 112.371 200.409 106.469 193.561C104.054 190.766 99.7956 189.264 96.3752 189.997Z" fill="#000000"/>
<path d="M199.859 198.488C196.774 199.397 193.823 202.367 192.783 205.616C192.247 207.328 192.549 211.555 193.32 213.233C194.158 215.014 196.606 217.6 198.35 218.473C199.389 218.997 200.395 219.172 202.709 219.172C205.459 219.172 205.895 219.067 207.572 218.089C214.781 213.861 214.547 203.135 207.169 199.222C205.191 198.174 202.005 197.859 199.859 198.488Z" fill="#000000"/>
<path d="M170.417 203.762C166.258 205.194 163.911 208.584 163.911 213.196C163.911 216.165 164.448 217.668 166.225 219.694C168.002 221.791 170.282 222.839 173.099 222.839C176.821 222.839 179.571 221.162 181.415 217.807C182.287 216.235 182.421 215.676 182.421 213.196C182.421 210.156 181.918 208.723 180.007 206.452C177.928 203.972 173.502 202.714 170.417 203.762Z" fill="#000000"/>
<path d="M231.648 206.034C229.569 207.432 228.899 208.794 228.932 211.694C228.932 214.454 229.636 215.712 231.85 217.075C235.404 219.241 240.199 217.18 241.071 213.057C242.312 207.257 236.41 202.89 231.648 206.034Z" fill="#000000"/>
<path d="M32.4271 207.292C29.9121 208.27 28.2019 209.877 26.9276 212.603C25.7875 214.979 25.7539 215.258 25.8881 217.878C26.0893 221.302 27.3635 223.923 29.7779 225.74C35.3445 230.002 42.5541 227.906 45.5051 221.198C46.2428 219.556 46.3434 218.927 46.2093 216.76C45.941 212.777 43.929 209.633 40.4751 207.816C38.7649 206.943 38.0942 206.768 36.0822 206.803C34.7744 206.803 33.1313 207.047 32.4271 207.292Z" fill="#000000"/>
<path d="M4.35955 210.296C2.01221 211.31 0.033745 214 0.000211644 216.201C-0.0333217 220.429 3.92361 223.783 7.84701 222.839C9.38955 222.49 11.368 220.883 12.0722 219.485C12.7764 218.018 12.6758 214.524 11.9045 213.126C10.4961 210.681 6.70688 209.248 4.35955 210.296Z" fill="#000000"/>
<path d="M64.9543 217.984C62.2716 218.647 59.7901 220.604 58.5829 222.98C57.9793 224.133 57.8452 225.006 57.8452 227.557C57.8452 231.191 58.4488 232.763 60.5614 234.719C64.4513 238.283 70.0849 238.178 73.6059 234.545C77.2275 230.736 77.2275 224.343 73.6394 220.604C71.4933 218.403 67.7711 217.25 64.9543 217.984Z" fill="#000000"/>
<path d="M224.104 229.128C222.628 229.478 220.784 231.015 220.079 232.378C219.241 234.09 219.342 237.549 220.314 239.016C221.656 241.078 223.198 241.881 225.713 241.881C227.557 241.881 228.128 241.741 229.268 240.903C231.045 239.61 232.051 237.689 232.051 235.557C232.017 231.365 227.993 228.115 224.104 229.128Z" fill="#000000"/>
<path d="M195.432 233.985C192.917 235.662 191.811 239.051 192.917 241.812C193.554 243.384 195.902 245.48 197.344 245.76C201.569 246.563 204.989 243.733 204.956 239.436C204.922 235.418 202.608 232.972 198.752 232.972C197.377 232.972 196.639 233.182 195.432 233.985Z" fill="#000000"/>
<path d="M10.5968 235.418C9.45664 235.767 7.54524 237.619 6.84104 238.982C6.57278 239.506 6.37158 240.729 6.37158 241.707C6.37158 243.768 6.87458 244.956 8.45064 246.459C11.3345 249.289 16.0627 248.625 18.1082 245.096C18.913 243.733 19.0136 240.065 18.3094 238.632C16.901 235.837 13.6483 234.475 10.5968 235.418Z" fill="#000000"/>
<path d="M35.7132 245.69C33.8353 246.528 31.8568 249.603 31.8568 251.664C31.8568 253.761 33.8688 256.835 35.7802 257.639C38.2617 258.757 41.8162 257.848 43.1576 255.787C45.069 252.852 45.069 250.476 43.1576 247.541C41.8162 245.48 38.1611 244.572 35.7132 245.69Z" fill="#000000"/>
<path d="M297.382 118.306H290.65V25.0129H270.659V18.8931H317.441V25.0129H297.382V118.306Z" fill="#000000"/>
<path d="M366.4 118.306H329.409V18.8931H366.4V25.0129H336.073V63.0918H364.632V69.2796H336.073V112.118H366.4V118.306Z" fill="#000000"/>
<path d="M412.978 23.585C408.309 23.585 404.32 24.8316 401.011 27.3249C397.747 29.7728 395.095 33.1274 393.055 37.3886C391.015 41.6498 389.519 46.4776 388.567 51.8721C387.615 57.2666 387.139 62.8425 387.139 68.5996C387.139 77.6207 388.204 85.5084 390.335 92.2629C392.511 99.0173 395.571 104.253 399.515 107.97C403.504 111.688 408.196 113.546 413.59 113.546C416.582 113.546 419.302 113.161 421.75 112.39C424.198 111.574 426.283 110.69 428.006 109.738V115.994C426.057 117.127 423.79 118.011 421.206 118.646C418.667 119.326 415.948 119.666 413.046 119.666C406.428 119.666 400.648 117.603 395.707 113.478C390.766 109.353 386.935 103.46 384.215 95.7988C381.541 88.1377 380.203 79.026 380.203 68.4636C380.203 61.6638 380.815 55.204 382.039 49.0842C383.309 42.9644 385.258 37.5246 387.887 32.7647C390.516 28.0049 393.894 24.265 398.019 21.5451C402.144 18.7798 407.085 17.3972 412.842 17.3972C415.744 17.3972 418.531 17.7825 421.206 18.5531C423.881 19.2785 426.487 20.3438 429.026 21.749L426.306 27.4609C424.13 26.1009 421.886 25.1263 419.574 24.537C417.307 23.9023 415.109 23.585 412.978 23.585Z" fill="#000000"/>
<path d="M489 118.306H481.656L457.585 68.3956L449.629 79.6153V118.306H442.965V18.8931H449.629V72.0675C450.173 70.7982 451.103 69.0076 452.417 66.6957C453.777 64.3837 455.432 61.5732 457.381 58.2639L480.296 18.8931H487.572L462.073 62.6158L489 118.306Z" fill="#000000"/>
<path d="M310.573 241.989H303.842V148.696H283.85V142.576H330.633V148.696H310.573V241.989Z" fill="#000000"/>
<path d="M342.6 241.989V142.576H349.196V241.989H342.6Z" fill="#000000"/>
<path d="M399.787 147.268C395.118 147.268 391.128 148.515 387.819 151.008C384.555 153.456 381.903 156.81 379.863 161.072C377.823 165.333 376.327 170.161 375.375 175.555C374.423 180.95 373.948 186.525 373.948 192.283C373.948 201.304 375.013 209.191 377.143 215.946C379.319 222.7 382.379 227.936 386.323 231.653C390.312 235.371 395.004 237.229 400.399 237.229C403.391 237.229 406.111 236.844 408.558 236.073C411.006 235.257 413.092 234.373 414.814 233.421V239.677C412.865 240.81 410.598 241.694 408.014 242.329C405.476 243.009 402.756 243.349 399.855 243.349C393.236 243.349 387.456 241.286 382.515 237.161C377.574 233.036 373.743 227.143 371.024 219.482C368.349 211.821 367.012 202.709 367.012 192.147C367.012 185.347 367.624 178.887 368.848 172.767C370.117 166.647 372.066 161.208 374.695 156.448C377.325 151.688 380.702 147.948 384.827 145.228C388.952 142.463 393.894 141.08 399.651 141.08C402.552 141.08 405.34 141.465 408.014 142.236C410.689 142.961 413.296 144.027 415.834 145.432L413.114 151.144C410.938 149.784 408.694 148.809 406.382 148.22C404.116 147.585 401.917 147.268 399.787 147.268Z" fill="#000000"/>
<path d="M475.808 241.989H468.465L444.393 192.079L436.438 203.298V241.989H429.774V142.576H436.438V195.751C436.982 194.481 437.911 192.691 439.226 190.379C440.585 188.067 442.24 185.256 444.189 181.947L467.105 142.576H474.38L448.881 186.299L475.808 241.989Z" fill="#000000"/>
</svg>